<?xml version="1.0" encoding="UTF-8"?>
<svg xmlns="http://www.w3.org/2000/svg" xmlns:xlink="http://www.w3.org/1999/xlink" width="854pt" height="480pt" viewBox="0 0 854 480" version="1.1">
<defs>
<g>
<symbol overflow="visible" id="glyph0-0">
<path style="stroke:none;" d="M 0.5625 0 L 0.5625 -8.328125 L 5 -8.328125 L 5 0 Z M 4.4375 -0.5625 L 4.4375 -7.78125 L 1.109375 -7.78125 L 1.109375 -0.5625 Z "/>
</symbol>
<symbol overflow="visible" id="glyph0-1">
<path style="stroke:none;" d="M 4.40625 0.15625 C 3.144531 0.15625 2.1875 -0.191406 1.53125 -0.890625 C 0.882812 -1.585938 0.5625 -2.578125 0.5625 -3.859375 C 0.5625 -4.492188 0.660156 -5.0625 0.859375 -5.5625 C 1.054688 -6.0625 1.328125 -6.484375 1.671875 -6.828125 C 2.023438 -7.171875 2.441406 -7.429688 2.921875 -7.609375 C 3.398438 -7.785156 3.921875 -7.875 4.484375 -7.875 C 4.816406 -7.875 5.113281 -7.847656 5.375 -7.796875 C 5.644531 -7.753906 5.878906 -7.703125 6.078125 -7.640625 C 6.273438 -7.578125 6.441406 -7.507812 6.578125 -7.4375 C 6.710938 -7.375 6.804688 -7.320312 6.859375 -7.28125 L 6.359375 -5.890625 C 6.128906 -6.015625 5.851562 -6.117188 5.53125 -6.203125 C 5.21875 -6.296875 4.863281 -6.34375 4.46875 -6.34375 C 4.195312 -6.34375 3.929688 -6.296875 3.671875 -6.203125 C 3.421875 -6.117188 3.195312 -5.976562 3 -5.78125 C 2.800781 -5.582031 2.644531 -5.328125 2.53125 -5.015625 C 2.414062 -4.710938 2.359375 -4.335938 2.359375 -3.890625 C 2.359375 -3.535156 2.394531 -3.203125 2.46875 -2.890625 C 2.550781 -2.585938 2.675781 -2.320312 2.84375 -2.09375 C 3.019531 -1.875 3.25 -1.695312 3.53125 -1.5625 C 3.8125 -1.4375 4.15625 -1.375 4.5625 -1.375 C 4.8125 -1.375 5.035156 -1.390625 5.234375 -1.421875 C 5.429688 -1.453125 5.609375 -1.488281 5.765625 -1.53125 C 5.921875 -1.570312 6.054688 -1.617188 6.171875 -1.671875 C 6.296875 -1.722656 6.40625 -1.769531 6.5 -1.8125 L 6.984375 -0.421875 C 6.734375 -0.273438 6.382812 -0.140625 5.9375 -0.015625 C 5.5 0.0976562 4.988281 0.15625 4.40625 0.15625 Z "/>
</symbol>
<symbol overflow="visible" id="glyph0-2">
<path style="stroke:none;" d="M 4.296875 -4.375 C 4.148438 -4.414062 3.976562 -4.457031 3.78125 -4.5 C 3.582031 -4.539062 3.367188 -4.5625 3.140625 -4.5625 C 3.035156 -4.5625 2.910156 -4.550781 2.765625 -4.53125 C 2.617188 -4.507812 2.507812 -4.488281 2.4375 -4.46875 L 2.4375 0 L 0.78125 0 L 0.78125 -5.53125 C 1.070312 -5.632812 1.421875 -5.734375 1.828125 -5.828125 C 2.234375 -5.921875 2.679688 -5.96875 3.171875 -5.96875 C 3.265625 -5.96875 3.375 -5.960938 3.5 -5.953125 C 3.625 -5.941406 3.75 -5.925781 3.875 -5.90625 C 4 -5.882812 4.125 -5.859375 4.25 -5.828125 C 4.375 -5.804688 4.484375 -5.78125 4.578125 -5.75 Z "/>
</symbol>
<symbol overflow="visible" id="glyph0-3">
<path style="stroke:none;" d="M 0.5 -2.875 C 0.5 -3.394531 0.578125 -3.847656 0.734375 -4.234375 C 0.898438 -4.628906 1.109375 -4.953125 1.359375 -5.203125 C 1.617188 -5.460938 1.914062 -5.660156 2.25 -5.796875 C 2.59375 -5.929688 2.941406 -6 3.296875 -6 C 4.128906 -6 4.785156 -5.742188 5.265625 -5.234375 C 5.742188 -4.734375 5.984375 -3.988281 5.984375 -3 C 5.984375 -2.90625 5.976562 -2.800781 5.96875 -2.6875 C 5.96875 -2.570312 5.960938 -2.46875 5.953125 -2.375 L 2.203125 -2.375 C 2.234375 -2.03125 2.390625 -1.757812 2.671875 -1.5625 C 2.953125 -1.363281 3.332031 -1.265625 3.8125 -1.265625 C 4.113281 -1.265625 4.410156 -1.289062 4.703125 -1.34375 C 4.992188 -1.40625 5.234375 -1.476562 5.421875 -1.5625 L 5.640625 -0.21875 C 5.554688 -0.164062 5.4375 -0.117188 5.28125 -0.078125 C 5.132812 -0.0351562 4.96875 0 4.78125 0.03125 C 4.601562 0.0703125 4.410156 0.101562 4.203125 0.125 C 4.003906 0.144531 3.800781 0.15625 3.59375 0.15625 C 3.0625 0.15625 2.601562 0.078125 2.21875 -0.078125 C 1.832031 -0.234375 1.507812 -0.445312 1.25 -0.71875 C 0.988281 -0.988281 0.796875 -1.304688 0.671875 -1.671875 C 0.554688 -2.046875 0.5 -2.445312 0.5 -2.875 Z M 4.390625 -3.515625 C 4.378906 -3.648438 4.351562 -3.785156 4.3125 -3.921875 C 4.269531 -4.054688 4.207031 -4.175781 4.125 -4.28125 C 4.039062 -4.382812 3.929688 -4.46875 3.796875 -4.53125 C 3.671875 -4.59375 3.515625 -4.625 3.328125 -4.625 C 3.140625 -4.625 2.976562 -4.59375 2.84375 -4.53125 C 2.707031 -4.46875 2.59375 -4.382812 2.5 -4.28125 C 2.414062 -4.175781 2.347656 -4.054688 2.296875 -3.921875 C 2.253906 -3.785156 2.222656 -3.648438 2.203125 -3.515625 Z "/>
</symbol>
<symbol overflow="visible" id="glyph0-4">
<path style="stroke:none;" d="M 3.015625 -1.15625 C 3.171875 -1.15625 3.320312 -1.15625 3.46875 -1.15625 C 3.625 -1.164062 3.742188 -1.179688 3.828125 -1.203125 L 3.828125 -2.453125 C 3.765625 -2.472656 3.664062 -2.488281 3.53125 -2.5 C 3.394531 -2.507812 3.273438 -2.515625 3.171875 -2.515625 C 3.015625 -2.515625 2.863281 -2.503906 2.71875 -2.484375 C 2.582031 -2.472656 2.460938 -2.441406 2.359375 -2.390625 C 2.253906 -2.335938 2.171875 -2.265625 2.109375 -2.171875 C 2.054688 -2.085938 2.03125 -1.976562 2.03125 -1.84375 C 2.03125 -1.582031 2.117188 -1.398438 2.296875 -1.296875 C 2.472656 -1.203125 2.710938 -1.15625 3.015625 -1.15625 Z M 2.875 -6 C 3.363281 -6 3.769531 -5.941406 4.09375 -5.828125 C 4.425781 -5.722656 4.6875 -5.566406 4.875 -5.359375 C 5.070312 -5.148438 5.210938 -4.894531 5.296875 -4.59375 C 5.378906 -4.300781 5.421875 -3.972656 5.421875 -3.609375 L 5.421875 -0.171875 C 5.179688 -0.117188 4.847656 -0.0546875 4.421875 0.015625 C 4.003906 0.0859375 3.5 0.125 2.90625 0.125 C 2.519531 0.125 2.171875 0.0859375 1.859375 0.015625 C 1.554688 -0.046875 1.296875 -0.148438 1.078125 -0.296875 C 0.859375 -0.453125 0.6875 -0.648438 0.5625 -0.890625 C 0.445312 -1.140625 0.390625 -1.441406 0.390625 -1.796875 C 0.390625 -2.140625 0.457031 -2.425781 0.59375 -2.65625 C 0.726562 -2.894531 0.910156 -3.082031 1.140625 -3.21875 C 1.367188 -3.363281 1.628906 -3.46875 1.921875 -3.53125 C 2.222656 -3.59375 2.535156 -3.625 2.859375 -3.625 C 3.066406 -3.625 3.253906 -3.613281 3.421875 -3.59375 C 3.585938 -3.582031 3.722656 -3.5625 3.828125 -3.53125 L 3.828125 -3.6875 C 3.828125 -3.96875 3.742188 -4.191406 3.578125 -4.359375 C 3.410156 -4.535156 3.113281 -4.625 2.6875 -4.625 C 2.40625 -4.625 2.125 -4.601562 1.84375 -4.5625 C 1.570312 -4.519531 1.335938 -4.460938 1.140625 -4.390625 L 0.9375 -5.71875 C 1.03125 -5.75 1.148438 -5.78125 1.296875 -5.8125 C 1.441406 -5.84375 1.597656 -5.867188 1.765625 -5.890625 C 1.929688 -5.921875 2.109375 -5.945312 2.296875 -5.96875 C 2.492188 -5.988281 2.6875 -6 2.875 -6 Z "/>
</symbol>
<symbol overflow="visible" id="glyph0-5">
<path style="stroke:none;" d="M 0.71875 -7.296875 L 2.375 -7.5625 L 2.375 -5.84375 L 4.359375 -5.84375 L 4.359375 -4.46875 L 2.375 -4.46875 L 2.375 -2.40625 C 2.375 -2.0625 2.4375 -1.785156 2.5625 -1.578125 C 2.6875 -1.367188 2.929688 -1.265625 3.296875 -1.265625 C 3.472656 -1.265625 3.65625 -1.28125 3.84375 -1.3125 C 4.03125 -1.34375 4.203125 -1.390625 4.359375 -1.453125 L 4.59375 -0.171875 C 4.394531 -0.0859375 4.171875 -0.015625 3.921875 0.046875 C 3.679688 0.109375 3.382812 0.140625 3.03125 0.140625 C 2.582031 0.140625 2.207031 0.078125 1.90625 -0.046875 C 1.613281 -0.171875 1.378906 -0.34375 1.203125 -0.5625 C 1.023438 -0.78125 0.898438 -1.046875 0.828125 -1.359375 C 0.753906 -1.671875 0.71875 -2.015625 0.71875 -2.390625 Z "/>
</symbol>
<symbol overflow="visible" id="glyph0-6">
<path style="stroke:none;" d="M 2.4375 0 L 0.78125 0 L 0.78125 -5.84375 L 2.4375 -5.84375 Z M 2.59375 -7.53125 C 2.59375 -7.226562 2.492188 -6.988281 2.296875 -6.8125 C 2.097656 -6.632812 1.863281 -6.546875 1.59375 -6.546875 C 1.332031 -6.546875 1.101562 -6.632812 0.90625 -6.8125 C 0.707031 -6.988281 0.609375 -7.226562 0.609375 -7.53125 C 0.609375 -7.832031 0.707031 -8.070312 0.90625 -8.25 C 1.101562 -8.425781 1.332031 -8.515625 1.59375 -8.515625 C 1.863281 -8.515625 2.097656 -8.425781 2.296875 -8.25 C 2.492188 -8.070312 2.59375 -7.832031 2.59375 -7.53125 Z "/>
</symbol>
<symbol overflow="visible" id="glyph0-7">
<path style="stroke:none;" d="M 6.25 -2.9375 C 6.25 -2.476562 6.179688 -2.054688 6.046875 -1.671875 C 5.910156 -1.285156 5.71875 -0.957031 5.46875 -0.6875 C 5.21875 -0.414062 4.914062 -0.207031 4.5625 -0.0625 C 4.207031 0.0820312 3.8125 0.15625 3.375 0.15625 C 2.945312 0.15625 2.554688 0.0820312 2.203125 -0.0625 C 1.847656 -0.207031 1.546875 -0.414062 1.296875 -0.6875 C 1.046875 -0.957031 0.847656 -1.285156 0.703125 -1.671875 C 0.566406 -2.054688 0.5 -2.476562 0.5 -2.9375 C 0.5 -3.394531 0.570312 -3.8125 0.71875 -4.1875 C 0.863281 -4.5625 1.0625 -4.878906 1.3125 -5.140625 C 1.570312 -5.410156 1.875 -5.617188 2.21875 -5.765625 C 2.570312 -5.921875 2.957031 -6 3.375 -6 C 3.800781 -6 4.1875 -5.921875 4.53125 -5.765625 C 4.882812 -5.617188 5.1875 -5.410156 5.4375 -5.140625 C 5.695312 -4.878906 5.894531 -4.5625 6.03125 -4.1875 C 6.175781 -3.8125 6.25 -3.394531 6.25 -2.9375 Z M 4.5625 -2.9375 C 4.5625 -3.445312 4.457031 -3.847656 4.25 -4.140625 C 4.039062 -4.429688 3.75 -4.578125 3.375 -4.578125 C 3 -4.578125 2.707031 -4.429688 2.5 -4.140625 C 2.289062 -3.847656 2.1875 -3.445312 2.1875 -2.9375 C 2.1875 -2.425781 2.289062 -2.019531 2.5 -1.71875 C 2.707031 -1.414062 3 -1.265625 3.375 -1.265625 C 3.75 -1.265625 4.039062 -1.414062 4.25 -1.71875 C 4.457031 -2.019531 4.5625 -2.425781 4.5625 -2.9375 Z "/>
</symbol>
<symbol overflow="visible" id="glyph0-8">
<path style="stroke:none;" d="M 0.78125 -5.640625 C 1.0625 -5.722656 1.421875 -5.800781 1.859375 -5.875 C 2.304688 -5.945312 2.773438 -5.984375 3.265625 -5.984375 C 3.765625 -5.984375 4.175781 -5.914062 4.5 -5.78125 C 4.832031 -5.65625 5.09375 -5.472656 5.28125 -5.234375 C 5.476562 -4.992188 5.617188 -4.710938 5.703125 -4.390625 C 5.785156 -4.066406 5.828125 -3.703125 5.828125 -3.296875 L 5.828125 0 L 4.171875 0 L 4.171875 -3.09375 C 4.171875 -3.632812 4.097656 -4.015625 3.953125 -4.234375 C 3.816406 -4.453125 3.554688 -4.5625 3.171875 -4.5625 C 3.046875 -4.5625 2.914062 -4.554688 2.78125 -4.546875 C 2.65625 -4.535156 2.539062 -4.523438 2.4375 -4.515625 L 2.4375 0 L 0.78125 0 Z "/>
</symbol>
<symbol overflow="visible" id="glyph0-9">
<path style="stroke:none;" d=""/>
</symbol>
<symbol overflow="visible" id="glyph0-10">
<path style="stroke:none;" d="M 0.390625 -2.046875 C 0.390625 -2.328125 0.429688 -2.582031 0.515625 -2.8125 C 0.597656 -3.050781 0.707031 -3.265625 0.84375 -3.453125 C 0.976562 -3.640625 1.132812 -3.804688 1.3125 -3.953125 C 1.5 -4.097656 1.691406 -4.222656 1.890625 -4.328125 C 1.710938 -4.546875 1.550781 -4.78125 1.40625 -5.03125 C 1.269531 -5.28125 1.203125 -5.550781 1.203125 -5.84375 C 1.203125 -6.5 1.394531 -7 1.78125 -7.34375 C 2.175781 -7.695312 2.71875 -7.875 3.40625 -7.875 C 3.757812 -7.875 4.0625 -7.828125 4.3125 -7.734375 C 4.570312 -7.640625 4.789062 -7.515625 4.96875 -7.359375 C 5.144531 -7.203125 5.273438 -7.015625 5.359375 -6.796875 C 5.453125 -6.585938 5.5 -6.363281 5.5 -6.125 C 5.5 -5.664062 5.367188 -5.257812 5.109375 -4.90625 C 4.859375 -4.5625 4.535156 -4.269531 4.140625 -4.03125 L 5.390625 -2.78125 C 5.453125 -2.9375 5.515625 -3.125 5.578125 -3.34375 C 5.640625 -3.570312 5.679688 -3.769531 5.703125 -3.9375 L 7.078125 -3.765625 C 7.054688 -3.628906 7.023438 -3.476562 6.984375 -3.3125 C 6.953125 -3.144531 6.910156 -2.972656 6.859375 -2.796875 C 6.804688 -2.628906 6.742188 -2.457031 6.671875 -2.28125 C 6.597656 -2.113281 6.519531 -1.960938 6.4375 -1.828125 C 6.675781 -1.554688 6.910156 -1.265625 7.140625 -0.953125 C 7.367188 -0.640625 7.5625 -0.320312 7.71875 0 L 6.015625 0 C 5.960938 -0.09375 5.882812 -0.210938 5.78125 -0.359375 C 5.675781 -0.503906 5.570312 -0.628906 5.46875 -0.734375 C 5.164062 -0.492188 4.816406 -0.296875 4.421875 -0.140625 C 4.035156 0.015625 3.597656 0.09375 3.109375 0.09375 C 2.585938 0.09375 2.148438 0.03125 1.796875 -0.09375 C 1.453125 -0.21875 1.175781 -0.382812 0.96875 -0.59375 C 0.757812 -0.800781 0.609375 -1.03125 0.515625 -1.28125 C 0.429688 -1.539062 0.390625 -1.796875 0.390625 -2.046875 Z M 1.9375 -2.203125 C 1.9375 -2.097656 1.957031 -1.984375 2 -1.859375 C 2.039062 -1.742188 2.109375 -1.632812 2.203125 -1.53125 C 2.304688 -1.4375 2.4375 -1.359375 2.59375 -1.296875 C 2.75 -1.234375 2.941406 -1.203125 3.171875 -1.203125 C 3.472656 -1.203125 3.738281 -1.238281 3.96875 -1.3125 C 4.207031 -1.394531 4.40625 -1.503906 4.5625 -1.640625 L 2.78125 -3.4375 C 2.6875 -3.382812 2.585938 -3.320312 2.484375 -3.25 C 2.378906 -3.175781 2.285156 -3.085938 2.203125 -2.984375 C 2.128906 -2.878906 2.066406 -2.765625 2.015625 -2.640625 C 1.960938 -2.515625 1.9375 -2.367188 1.9375 -2.203125 Z M 4.09375 -6.046875 C 4.09375 -6.210938 4.035156 -6.363281 3.921875 -6.5 C 3.804688 -6.632812 3.617188 -6.703125 3.359375 -6.703125 C 3.128906 -6.703125 2.945312 -6.628906 2.8125 -6.484375 C 2.6875 -6.335938 2.625 -6.148438 2.625 -5.921875 C 2.625 -5.722656 2.675781 -5.535156 2.78125 -5.359375 C 2.894531 -5.179688 3.039062 -5.007812 3.21875 -4.84375 C 3.457031 -4.976562 3.660156 -5.132812 3.828125 -5.3125 C 4.003906 -5.5 4.09375 -5.742188 4.09375 -6.046875 Z "/>
</symbol>
<symbol overflow="visible" id="glyph0-11">
<path style="stroke:none;" d="M 3.109375 0.109375 C 2.628906 0.0976562 2.238281 0.046875 1.9375 -0.046875 C 1.632812 -0.140625 1.394531 -0.273438 1.21875 -0.453125 C 1.050781 -0.628906 0.9375 -0.835938 0.875 -1.078125 C 0.8125 -1.328125 0.78125 -1.609375 0.78125 -1.921875 L 0.78125 -8.359375 L 2.4375 -8.625 L 2.4375 -2.25 C 2.4375 -2.101562 2.445312 -1.96875 2.46875 -1.84375 C 2.488281 -1.726562 2.53125 -1.628906 2.59375 -1.546875 C 2.65625 -1.472656 2.742188 -1.410156 2.859375 -1.359375 C 2.984375 -1.304688 3.144531 -1.269531 3.34375 -1.25 Z "/>
</symbol>
<symbol overflow="visible" id="glyph0-12">
<path style="stroke:none;" d="M 0.5 -2.921875 C 0.5 -3.347656 0.566406 -3.742188 0.703125 -4.109375 C 0.835938 -4.484375 1.035156 -4.8125 1.296875 -5.09375 C 1.554688 -5.375 1.867188 -5.59375 2.234375 -5.75 C 2.609375 -5.914062 3.035156 -6 3.515625 -6 C 3.828125 -6 4.109375 -5.96875 4.359375 -5.90625 C 4.617188 -5.851562 4.875 -5.773438 5.125 -5.671875 L 4.78125 -4.359375 C 4.625 -4.410156 4.453125 -4.457031 4.265625 -4.5 C 4.078125 -4.550781 3.867188 -4.578125 3.640625 -4.578125 C 3.148438 -4.578125 2.785156 -4.425781 2.546875 -4.125 C 2.304688 -3.820312 2.1875 -3.421875 2.1875 -2.921875 C 2.1875 -2.398438 2.296875 -1.992188 2.515625 -1.703125 C 2.742188 -1.410156 3.140625 -1.265625 3.703125 -1.265625 C 3.910156 -1.265625 4.128906 -1.28125 4.359375 -1.3125 C 4.585938 -1.351562 4.796875 -1.414062 4.984375 -1.5 L 5.21875 -0.140625 C 5.03125 -0.0546875 4.789062 0.0078125 4.5 0.0625 C 4.207031 0.125 3.890625 0.15625 3.546875 0.15625 C 3.015625 0.15625 2.554688 0.078125 2.171875 -0.078125 C 1.785156 -0.242188 1.46875 -0.460938 1.21875 -0.734375 C 0.96875 -1.003906 0.785156 -1.328125 0.671875 -1.703125 C 0.554688 -2.078125 0.5 -2.484375 0.5 -2.921875 Z "/>
</symbol>
<symbol overflow="visible" id="glyph0-13">
<path style="stroke:none;" d="M 5.765625 -0.203125 C 5.484375 -0.117188 5.117188 -0.0390625 4.671875 0.03125 C 4.234375 0.101562 3.769531 0.140625 3.28125 0.140625 C 2.78125 0.140625 2.363281 0.0703125 2.03125 -0.0625 C 1.707031 -0.195312 1.445312 -0.382812 1.25 -0.625 C 1.0625 -0.863281 0.925781 -1.148438 0.84375 -1.484375 C 0.757812 -1.816406 0.71875 -2.1875 0.71875 -2.59375 L 0.71875 -5.84375 L 2.375 -5.84375 L 2.375 -2.78125 C 2.375 -2.25 2.441406 -1.863281 2.578125 -1.625 C 2.722656 -1.394531 2.988281 -1.28125 3.375 -1.28125 C 3.5 -1.28125 3.625 -1.285156 3.75 -1.296875 C 3.882812 -1.304688 4.003906 -1.316406 4.109375 -1.328125 L 4.109375 -5.84375 L 5.765625 -5.84375 Z "/>
</symbol>
</g>
</defs>
<g id="surface126">
<g style="fill:rgb(100%,100%,100%);fill-opacity:1;">
  <use xlink:href="#glyph0-1" x="30" y="30.354492"/>
  <use xlink:href="#glyph0-2" x="37" y="30.354492"/>
  <use xlink:href="#glyph0-3" x="42" y="30.354492"/>
  <use xlink:href="#glyph0-4" x="48" y="30.354492"/>
  <use xlink:href="#glyph0-5" x="54" y="30.354492"/>
  <use xlink:href="#glyph0-6" x="59" y="30.354492"/>
  <use xlink:href="#glyph0-7" x="62" y="30.354492"/>
  <use xlink:href="#glyph0-8" x="69" y="30.354492"/>
  <use xlink:href="#glyph0-9" x="76" y="30.354492"/>
  <use xlink:href="#glyph0-10" x="79" y="30.354492"/>
  <use xlink:href="#glyph0-9" x="87" y="30.354492"/>
  <use xlink:href="#glyph0-1" x="90" y="30.354492"/>
  <use xlink:href="#glyph0-4" x="97" y="30.354492"/>
  <use xlink:href="#glyph0-11" x="103" y="30.354492"/>
  <use xlink:href="#glyph0-12" x="107" y="30.354492"/>
  <use xlink:href="#glyph0-13" x="113" y="30.354492"/>
  <use xlink:href="#glyph0-11" x="120" y="30.354492"/>
  <use xlink:href="#glyph0-4" x="124" y="30.354492"/>
  <use xlink:href="#glyph0-5" x="130" y="30.354492"/>
  <use xlink:href="#glyph0-6" x="135" y="30.354492"/>
  <use xlink:href="#glyph0-7" x="138" y="30.354492"/>
  <use xlink:href="#glyph0-8" x="145" y="30.354492"/>
</g>
</g>
</svg>
