<?xml version="1.0" encoding="UTF-8"?>
<svg xmlns="http://www.w3.org/2000/svg" xmlns:xlink="http://www.w3.org/1999/xlink" width="854pt" height="480pt" viewBox="0 0 854 480" version="1.1">
<defs>
<g>
<symbol overflow="visible" id="glyph0-0">
<path style="stroke:none;" d="M 0.328125 0 L 0.328125 -5 L 3 -5 L 3 0 Z M 2.671875 -0.328125 L 2.671875 -4.671875 L 0.671875 -4.671875 L 0.671875 -0.328125 Z "/>
</symbol>
<symbol overflow="visible" id="glyph0-1">
<path style="stroke:none;" d="M 2.0625 -2.359375 C 2.0625 -2.242188 2.039062 -2.132812 2 -2.03125 C 1.957031 -1.925781 1.898438 -1.832031 1.828125 -1.75 C 1.753906 -1.675781 1.664062 -1.617188 1.5625 -1.578125 C 1.457031 -1.535156 1.335938 -1.515625 1.203125 -1.515625 C 1.066406 -1.515625 0.945312 -1.535156 0.84375 -1.578125 C 0.738281 -1.617188 0.648438 -1.675781 0.578125 -1.75 C 0.503906 -1.832031 0.445312 -1.925781 0.40625 -2.03125 C 0.363281 -2.132812 0.34375 -2.242188 0.34375 -2.359375 C 0.34375 -2.460938 0.363281 -2.566406 0.40625 -2.671875 C 0.445312 -2.773438 0.503906 -2.863281 0.578125 -2.9375 C 0.648438 -3.019531 0.738281 -3.082031 0.84375 -3.125 C 0.945312 -3.175781 1.066406 -3.203125 1.203125 -3.203125 C 1.335938 -3.203125 1.457031 -3.175781 1.5625 -3.125 C 1.664062 -3.082031 1.753906 -3.019531 1.828125 -2.9375 C 1.898438 -2.863281 1.957031 -2.773438 2 -2.671875 C 2.039062 -2.566406 2.0625 -2.460938 2.0625 -2.359375 Z "/>
</symbol>
<symbol overflow="visible" id="glyph0-2">
<path style="stroke:none;" d=""/>
</symbol>
<symbol overflow="visible" id="glyph0-3">
<path style="stroke:none;" d="M 3.75 0 C 3.644531 -0.164062 3.53125 -0.347656 3.40625 -0.546875 C 3.28125 -0.753906 3.144531 -0.96875 3 -1.1875 C 2.851562 -1.40625 2.695312 -1.628906 2.53125 -1.859375 C 2.375 -2.085938 2.21875 -2.304688 2.0625 -2.515625 C 1.90625 -2.722656 1.753906 -2.921875 1.609375 -3.109375 C 1.460938 -3.296875 1.328125 -3.460938 1.203125 -3.609375 L 1.203125 0 L 0.578125 0 L 0.578125 -4.625 L 1.09375 -4.625 C 1.300781 -4.40625 1.519531 -4.144531 1.75 -3.84375 C 1.988281 -3.550781 2.222656 -3.25 2.453125 -2.9375 C 2.691406 -2.625 2.914062 -2.3125 3.125 -2 C 3.332031 -1.695312 3.507812 -1.429688 3.65625 -1.203125 L 3.65625 -4.625 L 4.28125 -4.625 L 4.28125 0 Z "/>
</symbol>
<symbol overflow="visible" id="glyph0-4">
<path style="stroke:none;" d="M 3.59375 -1.734375 C 3.59375 -1.460938 3.550781 -1.210938 3.46875 -0.984375 C 3.394531 -0.765625 3.285156 -0.570312 3.140625 -0.40625 C 2.992188 -0.25 2.820312 -0.125 2.625 -0.03125 C 2.425781 0.0507812 2.207031 0.09375 1.96875 0.09375 C 1.726562 0.09375 1.507812 0.0507812 1.3125 -0.03125 C 1.113281 -0.125 0.941406 -0.25 0.796875 -0.40625 C 0.648438 -0.570312 0.535156 -0.765625 0.453125 -0.984375 C 0.378906 -1.210938 0.34375 -1.460938 0.34375 -1.734375 C 0.34375 -2.003906 0.378906 -2.25 0.453125 -2.46875 C 0.535156 -2.695312 0.648438 -2.890625 0.796875 -3.046875 C 0.941406 -3.210938 1.113281 -3.335938 1.3125 -3.421875 C 1.507812 -3.515625 1.726562 -3.5625 1.96875 -3.5625 C 2.207031 -3.5625 2.425781 -3.515625 2.625 -3.421875 C 2.820312 -3.335938 2.992188 -3.210938 3.140625 -3.046875 C 3.285156 -2.890625 3.394531 -2.695312 3.46875 -2.46875 C 3.550781 -2.25 3.59375 -2.003906 3.59375 -1.734375 Z M 2.953125 -1.734375 C 2.953125 -2.128906 2.863281 -2.441406 2.6875 -2.671875 C 2.507812 -2.898438 2.269531 -3.015625 1.96875 -3.015625 C 1.664062 -3.015625 1.425781 -2.898438 1.25 -2.671875 C 1.070312 -2.441406 0.984375 -2.128906 0.984375 -1.734375 C 0.984375 -1.335938 1.070312 -1.023438 1.25 -0.796875 C 1.425781 -0.566406 1.664062 -0.453125 1.96875 -0.453125 C 2.269531 -0.453125 2.507812 -0.566406 2.6875 -0.796875 C 2.863281 -1.023438 2.953125 -1.335938 2.953125 -1.734375 Z "/>
</symbol>
<symbol overflow="visible" id="glyph0-5">
<path style="stroke:none;" d="M 1.8125 -3.546875 C 1.863281 -3.546875 1.925781 -3.539062 2 -3.53125 C 2.070312 -3.519531 2.140625 -3.507812 2.203125 -3.5 C 2.265625 -3.488281 2.320312 -3.476562 2.375 -3.46875 C 2.4375 -3.457031 2.484375 -3.445312 2.515625 -3.4375 L 2.40625 -2.90625 C 2.351562 -2.914062 2.269531 -2.929688 2.15625 -2.953125 C 2.039062 -2.984375 1.894531 -3 1.71875 -3 C 1.601562 -3 1.488281 -2.984375 1.375 -2.953125 C 1.257812 -2.929688 1.1875 -2.921875 1.15625 -2.921875 L 1.15625 0 L 0.53125 0 L 0.53125 -3.328125 C 0.675781 -3.378906 0.859375 -3.425781 1.078125 -3.46875 C 1.296875 -3.519531 1.539062 -3.546875 1.8125 -3.546875 Z "/>
</symbol>
<symbol overflow="visible" id="glyph0-6">
<path style="stroke:none;" d="M 0.53125 -3.375 C 0.675781 -3.40625 0.863281 -3.441406 1.09375 -3.484375 C 1.332031 -3.523438 1.601562 -3.546875 1.90625 -3.546875 C 2.125 -3.546875 2.3125 -3.515625 2.46875 -3.453125 C 2.625 -3.390625 2.75 -3.300781 2.84375 -3.1875 C 2.875 -3.207031 2.921875 -3.238281 2.984375 -3.28125 C 3.054688 -3.320312 3.140625 -3.359375 3.234375 -3.390625 C 3.335938 -3.429688 3.445312 -3.46875 3.5625 -3.5 C 3.6875 -3.53125 3.816406 -3.546875 3.953125 -3.546875 C 4.222656 -3.546875 4.441406 -3.503906 4.609375 -3.421875 C 4.773438 -3.347656 4.90625 -3.238281 5 -3.09375 C 5.101562 -2.945312 5.171875 -2.773438 5.203125 -2.578125 C 5.234375 -2.390625 5.25 -2.179688 5.25 -1.953125 L 5.25 0 L 4.625 0 L 4.625 -1.8125 C 4.625 -2.019531 4.613281 -2.195312 4.59375 -2.34375 C 4.570312 -2.488281 4.535156 -2.609375 4.484375 -2.703125 C 4.429688 -2.804688 4.351562 -2.878906 4.25 -2.921875 C 4.15625 -2.972656 4.035156 -3 3.890625 -3 C 3.679688 -3 3.507812 -2.96875 3.375 -2.90625 C 3.238281 -2.851562 3.144531 -2.804688 3.09375 -2.765625 C 3.132812 -2.648438 3.160156 -2.519531 3.171875 -2.375 C 3.191406 -2.238281 3.203125 -2.097656 3.203125 -1.953125 L 3.203125 0 L 2.578125 0 L 2.578125 -1.8125 C 2.578125 -2.019531 2.566406 -2.195312 2.546875 -2.34375 C 2.523438 -2.488281 2.484375 -2.609375 2.421875 -2.703125 C 2.367188 -2.804688 2.296875 -2.878906 2.203125 -2.921875 C 2.109375 -2.972656 1.988281 -3 1.84375 -3 C 1.78125 -3 1.710938 -2.992188 1.640625 -2.984375 C 1.566406 -2.984375 1.5 -2.976562 1.4375 -2.96875 C 1.375 -2.96875 1.316406 -2.960938 1.265625 -2.953125 C 1.210938 -2.941406 1.175781 -2.929688 1.15625 -2.921875 L 1.15625 0 L 0.53125 0 Z "/>
</symbol>
<symbol overflow="visible" id="glyph0-7">
<path style="stroke:none;" d="M 1.703125 -0.453125 C 1.847656 -0.453125 1.976562 -0.453125 2.09375 -0.453125 C 2.207031 -0.460938 2.300781 -0.476562 2.375 -0.5 L 2.375 -1.53125 C 2.332031 -1.550781 2.257812 -1.566406 2.15625 -1.578125 C 2.0625 -1.597656 1.941406 -1.609375 1.796875 -1.609375 C 1.703125 -1.609375 1.601562 -1.597656 1.5 -1.578125 C 1.394531 -1.566406 1.300781 -1.539062 1.21875 -1.5 C 1.132812 -1.457031 1.0625 -1.398438 1 -1.328125 C 0.9375 -1.253906 0.90625 -1.160156 0.90625 -1.046875 C 0.90625 -0.816406 0.976562 -0.660156 1.125 -0.578125 C 1.269531 -0.492188 1.460938 -0.453125 1.703125 -0.453125 Z M 1.65625 -3.5625 C 1.90625 -3.5625 2.113281 -3.523438 2.28125 -3.453125 C 2.457031 -3.390625 2.597656 -3.300781 2.703125 -3.1875 C 2.804688 -3.070312 2.878906 -2.929688 2.921875 -2.765625 C 2.960938 -2.597656 2.984375 -2.421875 2.984375 -2.234375 L 2.984375 -0.0625 C 2.929688 -0.0507812 2.859375 -0.0351562 2.765625 -0.015625 C 2.671875 -0.00390625 2.5625 0.00390625 2.4375 0.015625 C 2.320312 0.0351562 2.191406 0.0507812 2.046875 0.0625 C 1.910156 0.0703125 1.773438 0.078125 1.640625 0.078125 C 1.441406 0.078125 1.257812 0.0546875 1.09375 0.015625 C 0.925781 -0.0234375 0.78125 -0.0859375 0.65625 -0.171875 C 0.539062 -0.265625 0.445312 -0.378906 0.375 -0.515625 C 0.3125 -0.660156 0.28125 -0.832031 0.28125 -1.03125 C 0.28125 -1.226562 0.316406 -1.394531 0.390625 -1.53125 C 0.472656 -1.664062 0.582031 -1.773438 0.71875 -1.859375 C 0.851562 -1.941406 1.007812 -2.003906 1.1875 -2.046875 C 1.363281 -2.085938 1.550781 -2.109375 1.75 -2.109375 C 1.8125 -2.109375 1.875 -2.101562 1.9375 -2.09375 C 2.007812 -2.09375 2.070312 -2.085938 2.125 -2.078125 C 2.1875 -2.066406 2.238281 -2.054688 2.28125 -2.046875 C 2.332031 -2.035156 2.363281 -2.023438 2.375 -2.015625 L 2.375 -2.1875 C 2.375 -2.289062 2.363281 -2.394531 2.34375 -2.5 C 2.320312 -2.601562 2.28125 -2.691406 2.21875 -2.765625 C 2.164062 -2.835938 2.085938 -2.894531 1.984375 -2.9375 C 1.890625 -2.988281 1.757812 -3.015625 1.59375 -3.015625 C 1.394531 -3.015625 1.21875 -3 1.0625 -2.96875 C 0.90625 -2.945312 0.789062 -2.921875 0.71875 -2.890625 L 0.640625 -3.40625 C 0.722656 -3.4375 0.859375 -3.46875 1.046875 -3.5 C 1.234375 -3.539062 1.4375 -3.5625 1.65625 -3.5625 Z "/>
</symbol>
<symbol overflow="visible" id="glyph0-8">
<path style="stroke:none;" d="M 1.578125 0.0625 C 1.191406 0.0507812 0.914062 -0.0234375 0.75 -0.171875 C 0.59375 -0.328125 0.515625 -0.570312 0.515625 -0.90625 L 0.515625 -5.078125 L 1.140625 -5.171875 L 1.140625 -1 C 1.140625 -0.90625 1.144531 -0.820312 1.15625 -0.75 C 1.175781 -0.6875 1.207031 -0.632812 1.25 -0.59375 C 1.289062 -0.550781 1.34375 -0.519531 1.40625 -0.5 C 1.476562 -0.476562 1.5625 -0.460938 1.65625 -0.453125 Z "/>
</symbol>
<symbol overflow="visible" id="glyph0-9">
<path style="stroke:none;" d="M 1.15625 0 L 0.53125 0 L 0.53125 -3.46875 L 1.15625 -3.46875 Z M 0.84375 -4.09375 C 0.726562 -4.09375 0.628906 -4.128906 0.546875 -4.203125 C 0.472656 -4.273438 0.4375 -4.375 0.4375 -4.5 C 0.4375 -4.625 0.472656 -4.722656 0.546875 -4.796875 C 0.628906 -4.867188 0.726562 -4.90625 0.84375 -4.90625 C 0.945312 -4.90625 1.035156 -4.867188 1.109375 -4.796875 C 1.191406 -4.722656 1.234375 -4.625 1.234375 -4.5 C 1.234375 -4.375 1.191406 -4.273438 1.109375 -4.203125 C 1.035156 -4.128906 0.945312 -4.09375 0.84375 -4.09375 Z "/>
</symbol>
<symbol overflow="visible" id="glyph0-10">
<path style="stroke:none;" d="M 2.828125 -3 C 2.742188 -2.894531 2.625 -2.75 2.46875 -2.5625 C 2.3125 -2.375 2.144531 -2.164062 1.96875 -1.9375 C 1.789062 -1.71875 1.613281 -1.484375 1.4375 -1.234375 C 1.269531 -0.984375 1.117188 -0.742188 0.984375 -0.515625 L 2.890625 -0.515625 L 2.890625 0 L 0.234375 0 L 0.234375 -0.40625 C 0.347656 -0.601562 0.484375 -0.820312 0.640625 -1.0625 C 0.796875 -1.300781 0.957031 -1.535156 1.125 -1.765625 C 1.289062 -1.992188 1.457031 -2.210938 1.625 -2.421875 C 1.789062 -2.628906 1.929688 -2.804688 2.046875 -2.953125 L 0.328125 -2.953125 L 0.328125 -3.46875 L 2.828125 -3.46875 Z "/>
</symbol>
<symbol overflow="visible" id="glyph0-11">
<path style="stroke:none;" d="M 1.109375 -3.46875 L 2.421875 -3.46875 L 2.421875 -2.953125 L 1.109375 -2.953125 L 1.109375 -1.34375 C 1.109375 -1.175781 1.117188 -1.035156 1.140625 -0.921875 C 1.171875 -0.804688 1.210938 -0.710938 1.265625 -0.640625 C 1.328125 -0.578125 1.394531 -0.53125 1.46875 -0.5 C 1.550781 -0.476562 1.644531 -0.46875 1.75 -0.46875 C 1.9375 -0.46875 2.085938 -0.488281 2.203125 -0.53125 C 2.316406 -0.570312 2.394531 -0.601562 2.4375 -0.625 L 2.5625 -0.109375 C 2.5 -0.078125 2.390625 -0.0390625 2.234375 0 C 2.078125 0.0507812 1.898438 0.078125 1.703125 0.078125 C 1.460938 0.078125 1.265625 0.046875 1.109375 -0.015625 C 0.960938 -0.078125 0.84375 -0.164062 0.75 -0.28125 C 0.65625 -0.40625 0.585938 -0.554688 0.546875 -0.734375 C 0.515625 -0.910156 0.5 -1.113281 0.5 -1.34375 L 0.5 -4.4375 L 1.109375 -4.546875 Z "/>
</symbol>
<symbol overflow="visible" id="glyph0-12">
<path style="stroke:none;" d="M 0.53125 -3.375 C 0.675781 -3.40625 0.863281 -3.441406 1.09375 -3.484375 C 1.332031 -3.523438 1.609375 -3.546875 1.921875 -3.546875 C 2.191406 -3.546875 2.414062 -3.503906 2.59375 -3.421875 C 2.78125 -3.347656 2.925781 -3.238281 3.03125 -3.09375 C 3.144531 -2.957031 3.222656 -2.789062 3.265625 -2.59375 C 3.316406 -2.394531 3.34375 -2.179688 3.34375 -1.953125 L 3.34375 0 L 2.71875 0 L 2.71875 -1.8125 C 2.71875 -2.03125 2.703125 -2.210938 2.671875 -2.359375 C 2.640625 -2.515625 2.585938 -2.640625 2.515625 -2.734375 C 2.453125 -2.828125 2.363281 -2.894531 2.25 -2.9375 C 2.144531 -2.976562 2.007812 -3 1.84375 -3 C 1.78125 -3 1.710938 -2.992188 1.640625 -2.984375 C 1.566406 -2.984375 1.5 -2.976562 1.4375 -2.96875 C 1.375 -2.96875 1.316406 -2.960938 1.265625 -2.953125 C 1.210938 -2.941406 1.175781 -2.929688 1.15625 -2.921875 L 1.15625 0 L 0.53125 0 Z "/>
</symbol>
</g>
</defs>
<g id="surface80">
<g style="fill:rgb(100%,100%,100%);fill-opacity:1;">
  <use xlink:href="#glyph0-1" x="30" y="26.213867"/>
  <use xlink:href="#glyph0-2" x="32" y="26.213867"/>
  <use xlink:href="#glyph0-3" x="34" y="26.213867"/>
  <use xlink:href="#glyph0-4" x="39" y="26.213867"/>
  <use xlink:href="#glyph0-5" x="43" y="26.213867"/>
  <use xlink:href="#glyph0-6" x="46" y="26.213867"/>
  <use xlink:href="#glyph0-7" x="52" y="26.213867"/>
  <use xlink:href="#glyph0-8" x="55" y="26.213867"/>
  <use xlink:href="#glyph0-9" x="57" y="26.213867"/>
  <use xlink:href="#glyph0-10" x="59" y="26.213867"/>
  <use xlink:href="#glyph0-7" x="62" y="26.213867"/>
  <use xlink:href="#glyph0-11" x="65" y="26.213867"/>
  <use xlink:href="#glyph0-9" x="68" y="26.213867"/>
  <use xlink:href="#glyph0-4" x="70" y="26.213867"/>
  <use xlink:href="#glyph0-12" x="74" y="26.213867"/>
</g>
</g>
</svg>
