<?xml version="1.0" encoding="UTF-8"?>
<svg xmlns="http://www.w3.org/2000/svg" xmlns:xlink="http://www.w3.org/1999/xlink" width="854pt" height="480pt" viewBox="0 0 854 480" version="1.1">
<defs>
<g>
<symbol overflow="visible" id="glyph0-0">
<path style="stroke:none;" d="M 0.71875 0 L 0.71875 -10.828125 L 6.5 -10.828125 L 6.5 0 Z M 5.78125 -0.71875 L 5.78125 -10.109375 L 1.4375 -10.109375 L 1.4375 -0.71875 Z "/>
</symbol>
<symbol overflow="visible" id="glyph0-1">
<path style="stroke:none;" d="M 3.40625 -1.828125 C 3.507812 -1.816406 3.628906 -1.804688 3.765625 -1.796875 C 3.910156 -1.796875 4.082031 -1.796875 4.28125 -1.796875 C 5.40625 -1.796875 6.238281 -2.082031 6.78125 -2.65625 C 7.320312 -3.226562 7.59375 -4.015625 7.59375 -5.015625 C 7.59375 -6.054688 7.332031 -6.847656 6.8125 -7.390625 C 6.289062 -7.929688 5.46875 -8.203125 4.34375 -8.203125 C 4.1875 -8.203125 4.023438 -8.195312 3.859375 -8.1875 C 3.703125 -8.1875 3.550781 -8.175781 3.40625 -8.15625 Z M 9.921875 -5.015625 C 9.921875 -4.140625 9.785156 -3.378906 9.515625 -2.734375 C 9.242188 -2.097656 8.859375 -1.566406 8.359375 -1.140625 C 7.867188 -0.710938 7.265625 -0.394531 6.546875 -0.1875 C 5.835938 0.0195312 5.039062 0.125 4.15625 0.125 C 3.75 0.125 3.273438 0.109375 2.734375 0.078125 C 2.203125 0.046875 1.675781 -0.0195312 1.15625 -0.125 L 1.15625 -9.875 C 1.675781 -9.96875 2.21875 -10.03125 2.78125 -10.0625 C 3.34375 -10.101562 3.828125 -10.125 4.234375 -10.125 C 5.085938 -10.125 5.863281 -10.023438 6.5625 -9.828125 C 7.257812 -9.640625 7.859375 -9.335938 8.359375 -8.921875 C 8.859375 -8.503906 9.242188 -7.972656 9.515625 -7.328125 C 9.785156 -6.679688 9.921875 -5.910156 9.921875 -5.015625 Z "/>
</symbol>
<symbol overflow="visible" id="glyph0-2">
<path style="stroke:none;" d="M 3.15625 0 L 1.015625 0 L 1.015625 -7.59375 L 3.15625 -7.59375 Z M 3.359375 -9.78125 C 3.359375 -9.394531 3.226562 -9.085938 2.96875 -8.859375 C 2.71875 -8.628906 2.421875 -8.515625 2.078125 -8.515625 C 1.734375 -8.515625 1.429688 -8.628906 1.171875 -8.859375 C 0.921875 -9.085938 0.796875 -9.394531 0.796875 -9.78125 C 0.796875 -10.175781 0.921875 -10.488281 1.171875 -10.71875 C 1.429688 -10.945312 1.734375 -11.0625 2.078125 -11.0625 C 2.421875 -11.0625 2.71875 -10.945312 2.96875 -10.71875 C 3.226562 -10.488281 3.359375 -10.175781 3.359375 -9.78125 Z "/>
</symbol>
<symbol overflow="visible" id="glyph0-3">
<path style="stroke:none;" d="M 3.1875 -1.546875 C 3.582031 -1.546875 3.863281 -1.582031 4.03125 -1.65625 C 4.195312 -1.738281 4.28125 -1.890625 4.28125 -2.109375 C 4.28125 -2.285156 4.171875 -2.4375 3.953125 -2.5625 C 3.742188 -2.6875 3.421875 -2.832031 2.984375 -3 C 2.648438 -3.125 2.34375 -3.253906 2.0625 -3.390625 C 1.789062 -3.523438 1.554688 -3.6875 1.359375 -3.875 C 1.171875 -4.0625 1.023438 -4.285156 0.921875 -4.546875 C 0.816406 -4.804688 0.765625 -5.117188 0.765625 -5.484375 C 0.765625 -6.191406 1.03125 -6.753906 1.5625 -7.171875 C 2.09375 -7.585938 2.816406 -7.796875 3.734375 -7.796875 C 4.203125 -7.796875 4.644531 -7.753906 5.0625 -7.671875 C 5.488281 -7.585938 5.828125 -7.5 6.078125 -7.40625 L 5.703125 -5.734375 C 5.453125 -5.816406 5.179688 -5.890625 4.890625 -5.953125 C 4.597656 -6.023438 4.265625 -6.0625 3.890625 -6.0625 C 3.222656 -6.0625 2.890625 -5.875 2.890625 -5.5 C 2.890625 -5.414062 2.898438 -5.335938 2.921875 -5.265625 C 2.953125 -5.203125 3.007812 -5.140625 3.09375 -5.078125 C 3.1875 -5.015625 3.304688 -4.945312 3.453125 -4.875 C 3.609375 -4.800781 3.800781 -4.722656 4.03125 -4.640625 C 4.5 -4.460938 4.882812 -4.289062 5.1875 -4.125 C 5.5 -3.957031 5.742188 -3.773438 5.921875 -3.578125 C 6.097656 -3.378906 6.222656 -3.160156 6.296875 -2.921875 C 6.367188 -2.679688 6.40625 -2.398438 6.40625 -2.078125 C 6.40625 -1.328125 6.125 -0.757812 5.5625 -0.375 C 5 0.0078125 4.203125 0.203125 3.171875 0.203125 C 2.503906 0.203125 1.945312 0.144531 1.5 0.03125 C 1.050781 -0.0820312 0.738281 -0.179688 0.5625 -0.265625 L 0.921875 -2 C 1.285156 -1.863281 1.660156 -1.753906 2.046875 -1.671875 C 2.429688 -1.585938 2.8125 -1.546875 3.1875 -1.546875 Z "/>
</symbol>
<symbol overflow="visible" id="glyph0-4">
<path style="stroke:none;" d="M 0.9375 -9.484375 L 3.09375 -9.828125 L 3.09375 -7.59375 L 5.671875 -7.59375 L 5.671875 -5.796875 L 3.09375 -5.796875 L 3.09375 -3.140625 C 3.09375 -2.679688 3.171875 -2.316406 3.328125 -2.046875 C 3.484375 -1.773438 3.800781 -1.640625 4.28125 -1.640625 C 4.519531 -1.640625 4.757812 -1.660156 5 -1.703125 C 5.25 -1.753906 5.472656 -1.816406 5.671875 -1.890625 L 5.984375 -0.21875 C 5.722656 -0.113281 5.429688 -0.0234375 5.109375 0.046875 C 4.796875 0.128906 4.40625 0.171875 3.9375 0.171875 C 3.351562 0.171875 2.867188 0.09375 2.484375 -0.0625 C 2.097656 -0.21875 1.789062 -0.4375 1.5625 -0.71875 C 1.332031 -1.007812 1.171875 -1.359375 1.078125 -1.765625 C 0.984375 -2.171875 0.9375 -2.617188 0.9375 -3.109375 Z "/>
</symbol>
<symbol overflow="visible" id="glyph0-5">
<path style="stroke:none;" d="M 4.046875 0.140625 C 3.421875 0.128906 2.910156 0.0625 2.515625 -0.0625 C 2.128906 -0.1875 1.820312 -0.359375 1.59375 -0.578125 C 1.363281 -0.804688 1.207031 -1.082031 1.125 -1.40625 C 1.050781 -1.726562 1.015625 -2.09375 1.015625 -2.5 L 1.015625 -10.859375 L 3.15625 -11.203125 L 3.15625 -2.9375 C 3.15625 -2.738281 3.171875 -2.5625 3.203125 -2.40625 C 3.234375 -2.257812 3.289062 -2.128906 3.375 -2.015625 C 3.457031 -1.910156 3.570312 -1.820312 3.71875 -1.75 C 3.875 -1.6875 4.082031 -1.644531 4.34375 -1.625 Z "/>
</symbol>
<symbol overflow="visible" id="glyph0-6">
<path style="stroke:none;" d="M 3.90625 -1.5 C 4.125 -1.5 4.328125 -1.503906 4.515625 -1.515625 C 4.710938 -1.523438 4.867188 -1.539062 4.984375 -1.5625 L 4.984375 -3.1875 C 4.890625 -3.207031 4.753906 -3.226562 4.578125 -3.25 C 4.410156 -3.269531 4.253906 -3.28125 4.109375 -3.28125 C 3.910156 -3.28125 3.722656 -3.265625 3.546875 -3.234375 C 3.367188 -3.210938 3.210938 -3.164062 3.078125 -3.09375 C 2.941406 -3.03125 2.832031 -2.941406 2.75 -2.828125 C 2.675781 -2.710938 2.640625 -2.566406 2.640625 -2.390625 C 2.640625 -2.054688 2.753906 -1.820312 2.984375 -1.6875 C 3.210938 -1.5625 3.519531 -1.5 3.90625 -1.5 Z M 3.734375 -7.796875 C 4.367188 -7.796875 4.898438 -7.722656 5.328125 -7.578125 C 5.753906 -7.429688 6.09375 -7.222656 6.34375 -6.953125 C 6.601562 -6.679688 6.785156 -6.351562 6.890625 -5.96875 C 6.992188 -5.59375 7.046875 -5.164062 7.046875 -4.6875 L 7.046875 -0.21875 C 6.734375 -0.144531 6.300781 -0.0664062 5.75 0.015625 C 5.207031 0.109375 4.546875 0.15625 3.765625 0.15625 C 3.273438 0.15625 2.828125 0.113281 2.421875 0.03125 C 2.023438 -0.0507812 1.679688 -0.191406 1.390625 -0.390625 C 1.109375 -0.585938 0.890625 -0.84375 0.734375 -1.15625 C 0.578125 -1.476562 0.5 -1.875 0.5 -2.34375 C 0.5 -2.78125 0.585938 -3.148438 0.765625 -3.453125 C 0.953125 -3.765625 1.191406 -4.007812 1.484375 -4.1875 C 1.785156 -4.375 2.128906 -4.507812 2.515625 -4.59375 C 2.898438 -4.675781 3.296875 -4.71875 3.703125 -4.71875 C 3.984375 -4.71875 4.234375 -4.707031 4.453125 -4.6875 C 4.671875 -4.664062 4.847656 -4.632812 4.984375 -4.59375 L 4.984375 -4.796875 C 4.984375 -5.160156 4.867188 -5.453125 4.640625 -5.671875 C 4.421875 -5.890625 4.039062 -6 3.5 -6 C 3.125 -6 2.757812 -5.972656 2.40625 -5.921875 C 2.050781 -5.867188 1.742188 -5.796875 1.484375 -5.703125 L 1.21875 -7.4375 C 1.34375 -7.476562 1.5 -7.519531 1.6875 -7.5625 C 1.875 -7.601562 2.078125 -7.640625 2.296875 -7.671875 C 2.515625 -7.703125 2.742188 -7.726562 2.984375 -7.75 C 3.234375 -7.78125 3.484375 -7.796875 3.734375 -7.796875 Z "/>
</symbol>
<symbol overflow="visible" id="glyph0-7">
<path style="stroke:none;" d="M 8.109375 -3.8125 C 8.109375 -3.21875 8.019531 -2.671875 7.84375 -2.171875 C 7.675781 -1.671875 7.425781 -1.242188 7.09375 -0.890625 C 6.769531 -0.546875 6.378906 -0.273438 5.921875 -0.078125 C 5.460938 0.109375 4.953125 0.203125 4.390625 0.203125 C 3.828125 0.203125 3.316406 0.109375 2.859375 -0.078125 C 2.410156 -0.273438 2.019531 -0.546875 1.6875 -0.890625 C 1.363281 -1.242188 1.109375 -1.671875 0.921875 -2.171875 C 0.742188 -2.671875 0.65625 -3.21875 0.65625 -3.8125 C 0.65625 -4.40625 0.75 -4.945312 0.9375 -5.4375 C 1.125 -5.925781 1.378906 -6.34375 1.703125 -6.6875 C 2.035156 -7.039062 2.429688 -7.3125 2.890625 -7.5 C 3.347656 -7.695312 3.847656 -7.796875 4.390625 -7.796875 C 4.941406 -7.796875 5.441406 -7.695312 5.890625 -7.5 C 6.347656 -7.3125 6.738281 -7.039062 7.0625 -6.6875 C 7.394531 -6.34375 7.648438 -5.925781 7.828125 -5.4375 C 8.015625 -4.945312 8.109375 -4.40625 8.109375 -3.8125 Z M 5.921875 -3.8125 C 5.921875 -4.476562 5.785156 -5 5.515625 -5.375 C 5.253906 -5.757812 4.878906 -5.953125 4.390625 -5.953125 C 3.898438 -5.953125 3.519531 -5.757812 3.25 -5.375 C 2.976562 -5 2.84375 -4.476562 2.84375 -3.8125 C 2.84375 -3.144531 2.976562 -2.613281 3.25 -2.21875 C 3.519531 -1.832031 3.898438 -1.640625 4.390625 -1.640625 C 4.878906 -1.640625 5.253906 -1.832031 5.515625 -2.21875 C 5.785156 -2.613281 5.921875 -3.144531 5.921875 -3.8125 Z "/>
</symbol>
<symbol overflow="visible" id="glyph0-8">
<path style="stroke:none;" d="M 1.015625 -7.328125 C 1.378906 -7.441406 1.847656 -7.539062 2.421875 -7.625 C 3.003906 -7.71875 3.613281 -7.765625 4.25 -7.765625 C 4.894531 -7.765625 5.429688 -7.679688 5.859375 -7.515625 C 6.285156 -7.347656 6.625 -7.109375 6.875 -6.796875 C 7.125 -6.492188 7.300781 -6.128906 7.40625 -5.703125 C 7.507812 -5.273438 7.5625 -4.800781 7.5625 -4.28125 L 7.5625 0 L 5.40625 0 L 5.40625 -4.03125 C 5.40625 -4.71875 5.3125 -5.207031 5.125 -5.5 C 4.945312 -5.789062 4.609375 -5.9375 4.109375 -5.9375 C 3.960938 -5.9375 3.800781 -5.925781 3.625 -5.90625 C 3.445312 -5.894531 3.289062 -5.878906 3.15625 -5.859375 L 3.15625 0 L 1.015625 0 Z "/>
</symbol>
<symbol overflow="visible" id="glyph0-9">
<path style="stroke:none;" d=""/>
</symbol>
<symbol overflow="visible" id="glyph0-10">
<path style="stroke:none;" d="M 5.875 -3.734375 C 5.875 -4.398438 5.722656 -4.929688 5.421875 -5.328125 C 5.128906 -5.734375 4.6875 -5.9375 4.09375 -5.9375 C 3.90625 -5.9375 3.726562 -5.925781 3.5625 -5.90625 C 3.40625 -5.894531 3.269531 -5.878906 3.15625 -5.859375 L 3.15625 -1.984375 C 3.289062 -1.890625 3.46875 -1.8125 3.6875 -1.75 C 3.90625 -1.695312 4.125 -1.671875 4.34375 -1.671875 C 5.363281 -1.671875 5.875 -2.359375 5.875 -3.734375 Z M 8.078125 -3.796875 C 8.078125 -3.210938 8.003906 -2.675781 7.859375 -2.1875 C 7.710938 -1.707031 7.5 -1.296875 7.21875 -0.953125 C 6.9375 -0.609375 6.585938 -0.335938 6.171875 -0.140625 C 5.765625 0.046875 5.289062 0.140625 4.75 0.140625 C 4.445312 0.140625 4.164062 0.109375 3.90625 0.046875 C 3.644531 -0.00390625 3.394531 -0.0820312 3.15625 -0.1875 L 3.15625 2.671875 L 1.015625 2.671875 L 1.015625 -7.328125 C 1.203125 -7.390625 1.421875 -7.445312 1.671875 -7.5 C 1.921875 -7.550781 2.179688 -7.59375 2.453125 -7.625 C 2.734375 -7.664062 3.015625 -7.695312 3.296875 -7.71875 C 3.578125 -7.75 3.847656 -7.765625 4.109375 -7.765625 C 4.734375 -7.765625 5.289062 -7.671875 5.78125 -7.484375 C 6.28125 -7.296875 6.695312 -7.03125 7.03125 -6.6875 C 7.363281 -6.34375 7.617188 -5.925781 7.796875 -5.4375 C 7.984375 -4.945312 8.078125 -4.398438 8.078125 -3.796875 Z "/>
</symbol>
<symbol overflow="visible" id="glyph0-11">
<path style="stroke:none;" d="M 0.65625 -3.734375 C 0.65625 -4.410156 0.753906 -5 0.953125 -5.5 C 1.160156 -6.007812 1.429688 -6.429688 1.765625 -6.765625 C 2.109375 -7.109375 2.5 -7.363281 2.9375 -7.53125 C 3.375 -7.707031 3.820312 -7.796875 4.28125 -7.796875 C 5.363281 -7.796875 6.21875 -7.460938 6.84375 -6.796875 C 7.46875 -6.140625 7.78125 -5.171875 7.78125 -3.890625 C 7.78125 -3.765625 7.773438 -3.628906 7.765625 -3.484375 C 7.753906 -3.335938 7.742188 -3.207031 7.734375 -3.09375 L 2.859375 -3.09375 C 2.910156 -2.644531 3.117188 -2.289062 3.484375 -2.03125 C 3.847656 -1.769531 4.335938 -1.640625 4.953125 -1.640625 C 5.347656 -1.640625 5.734375 -1.675781 6.109375 -1.75 C 6.492188 -1.820312 6.804688 -1.910156 7.046875 -2.015625 L 7.328125 -0.28125 C 7.210938 -0.21875 7.054688 -0.15625 6.859375 -0.09375 C 6.671875 -0.0390625 6.457031 0.00390625 6.21875 0.046875 C 5.988281 0.0859375 5.738281 0.125 5.46875 0.15625 C 5.195312 0.1875 4.925781 0.203125 4.65625 0.203125 C 3.976562 0.203125 3.382812 0.101562 2.875 -0.09375 C 2.375 -0.300781 1.957031 -0.578125 1.625 -0.921875 C 1.289062 -1.273438 1.046875 -1.691406 0.890625 -2.171875 C 0.734375 -2.660156 0.65625 -3.179688 0.65625 -3.734375 Z M 5.703125 -4.5625 C 5.691406 -4.75 5.660156 -4.925781 5.609375 -5.09375 C 5.554688 -5.269531 5.472656 -5.425781 5.359375 -5.5625 C 5.253906 -5.695312 5.113281 -5.804688 4.9375 -5.890625 C 4.769531 -5.972656 4.5625 -6.015625 4.3125 -6.015625 C 4.070312 -6.015625 3.863281 -5.972656 3.6875 -5.890625 C 3.519531 -5.816406 3.378906 -5.710938 3.265625 -5.578125 C 3.148438 -5.441406 3.0625 -5.285156 3 -5.109375 C 2.9375 -4.929688 2.890625 -4.75 2.859375 -4.5625 Z "/>
</symbol>
</g>
</defs>
<g id="surface127">
<g style="fill:rgb(87.843137%,87.843137%,87.843137%);fill-opacity:1;">
  <use xlink:href="#glyph0-1" x="30" y="33.461914"/>
  <use xlink:href="#glyph0-2" x="41" y="33.461914"/>
  <use xlink:href="#glyph0-3" x="45" y="33.461914"/>
  <use xlink:href="#glyph0-4" x="52" y="33.461914"/>
  <use xlink:href="#glyph0-2" x="58" y="33.461914"/>
  <use xlink:href="#glyph0-5" x="62" y="33.461914"/>
  <use xlink:href="#glyph0-5" x="67" y="33.461914"/>
  <use xlink:href="#glyph0-6" x="72" y="33.461914"/>
  <use xlink:href="#glyph0-4" x="80" y="33.461914"/>
  <use xlink:href="#glyph0-2" x="86" y="33.461914"/>
  <use xlink:href="#glyph0-7" x="90" y="33.461914"/>
  <use xlink:href="#glyph0-8" x="99" y="33.461914"/>
  <use xlink:href="#glyph0-9" x="108" y="33.461914"/>
  <use xlink:href="#glyph0-10" x="111" y="33.461914"/>
  <use xlink:href="#glyph0-2" x="120" y="33.461914"/>
  <use xlink:href="#glyph0-10" x="124" y="33.461914"/>
  <use xlink:href="#glyph0-11" x="133" y="33.461914"/>
  <use xlink:href="#glyph0-5" x="141" y="33.461914"/>
  <use xlink:href="#glyph0-2" x="146" y="33.461914"/>
  <use xlink:href="#glyph0-8" x="150" y="33.461914"/>
  <use xlink:href="#glyph0-11" x="159" y="33.461914"/>
</g>
</g>
</svg>
